<?xml version="1.0" encoding="UTF-8" standalone="no"?>
<svg
   xmlns:dc="http://purl.org/dc/elements/1.1/"
   xmlns:cc="http://creativecommons.org/ns#"
   xmlns:rdf="http://www.w3.org/1999/02/22-rdf-syntax-ns#"
   xmlns:svg="http://www.w3.org/2000/svg"
   xmlns="http://www.w3.org/2000/svg"
   xmlns:xlink="http://www.w3.org/1999/xlink"
   xmlns:sodipodi="http://sodipodi.sourceforge.net/DTD/sodipodi-0.dtd"
   xmlns:inkscape="http://www.inkscape.org/namespaces/inkscape"
   width="210mm"
   height="297mm"
   viewBox="0 0 210 297"
   version="1.1"
   id="svg8"
   inkscape:version="1.0.2-2 (e86c870879, 2021-01-15)"
   sodipodi:docname="drawingIcon.svg">
  <defs
     id="defs2">
    <linearGradient
       inkscape:collect="always"
       id="linearGradient464">
      <stop
         style="stop-color:#7a74e0;stop-opacity:1;"
         offset="0"
         id="stop460" />
      <stop
         style="stop-color:#7a74e0;stop-opacity:0;"
         offset="1"
         id="stop462" />
    </linearGradient>
    <linearGradient
       inkscape:collect="always"
       xlink:href="#linearGradient464"
       id="linearGradient466"
       x1="1011.2206"
       y1="767.89417"
       x2="1056.3523"
       y2="847.84412"
       gradientUnits="userSpaceOnUse" />
  </defs>
  <sodipodi:namedview
     id="base"
     pagecolor="#ffffff"
     bordercolor="#666666"
     borderopacity="1.0"
     inkscape:pageopacity="0.0"
     inkscape:pageshadow="2"
     inkscape:zoom="0.35"
     inkscape:cx="-161.42857"
     inkscape:cy="560"
     inkscape:document-units="mm"
     inkscape:current-layer="layer1"
     inkscape:document-rotation="0"
     showgrid="false"
     showguides="true"
     inkscape:guide-bbox="true"
     inkscape:window-width="1431"
     inkscape:window-height="1033"
     inkscape:window-x="96"
     inkscape:window-y="0"
     inkscape:window-maximized="0"
     inkscape:snap-nodes="false"
     inkscape:snap-global="false"
     inkscape:snap-bbox="false">
    <sodipodi:guide
       position="-90.714284,372.59525"
       orientation="0.70710678,-0.70710678"
       id="guide10" />
  </sodipodi:namedview>
  <metadata
     id="metadata5">
    <rdf:RDF>
      <cc:Work
         rdf:about="">
        <dc:format>image/svg+xml</dc:format>
        <dc:type
           rdf:resource="http://purl.org/dc/dcmitype/StillImage" />
        <dc:title></dc:title>
      </cc:Work>
    </rdf:RDF>
  </metadata>
  <g
     inkscape:label="Layer 1"
     inkscape:groupmode="layer"
     id="layer1">
    <g
       id="g351"
       transform="matrix(-0.48267347,0.00682104,0.00791466,0.46891559,326.52935,-67.146648)"
       inkscape:export-xdpi="96"
       inkscape:export-ydpi="96"
       inkscape:transform-center-x="-39.312201"
       inkscape:transform-center-y="-11.556102">
      <path
         d="m 987.3059,181.51994 -20.4249,51.43293 c 3.95179,17.89039 7.818,38.06555 10.92047,59.54949 l 36.36563,-76.10438 0.5962,0.91752 c -8.3313,-14.39878 -17.80503,-26.82155 -28.08522,-36.643 z"
         fill="#6760dc"
         style="fill:#f0623b"
         id="path149"
         transform="translate(-31.45212,-103.72389)" />
      <path
         d="m 966.18209,229.81571 19.78563,-49.82136 c -11.601,-10.908 -24.21321,-18.50312 -37.37072,-21.85533 -0.68455,-0.17438 -1.366,-0.32685 -2.04705,-0.47681 1.58747,4.72154 10.71969,32.49615 19.63214,72.1535 z"
         fill="#6760dc"
         style="fill:#f0623b"
         id="path151"
         transform="translate(-31.45212,-103.72389)" />
      <path
         d="m 1049.7531,340.152 0.4592,1.14062 q -0.7314,-11.64813 -2.2982,-23.04718 l -63.21974,79.01067 -0.23049,-0.51284 q -0.20506,6.99369 -0.615,13.79789 z"
         fill="#6760dc"
         style="fill:#f0623b"
         id="path153"
         transform="translate(-31.45212,-103.72389)" />
      <path
         d="m 1038.2135,273.68953 0.5323,1.04815 a 258.75343,258.75343 0 0 0 -23.4103,-56.41425 l -37.05917,77.55419 q 4.22386,30.224 5.6533,58.32989 z"
         fill="#6760dc"
         style="fill:#f0623b"
         id="path155"
         transform="translate(-31.45212,-103.72389)" />
      <path
         d="m 862.4795,223.41593 a 216.052,216.052 0 0 0 -9.86933,42.41262 l 129.01636,75.37366 c -1.15383,-16.236 -2.9013,-31.77019 -4.92709,-46.12465 L 862.3408,224.63624 Z"
         fill="#6760dc"
         style="fill:#f0623b"
         id="path157"
         transform="translate(-31.45212,-103.72389)" />
      <path
         d="m 850.90669,282.67 0.11744,-1.22754 131.46253,74.33178 q -0.27891,-5.98183 -0.67228,-11.86013 l -129.49247,-75.65177 0.12553,-1.22576 q -0.9849,7.62906 -1.54075,15.63342 z"
         fill="#6760dc"
         style="fill:#f0623b"
         id="path159"
         transform="translate(-31.45212,-103.72389)" />
      <path
         d="m 1047.2163,315.68348 0.4943,1.09987 a 309.00217,309.00217 0 0 0 -8.5952,-40.75622 l -55.01771,81.60695 q 0.84669,18.74678 0.42572,36.40162 z"
         fill="#6760dc"
         style="fill:#f0623b"
         id="path161"
         transform="translate(-31.45212,-103.72389)" />
      <path
         d="m 977.336,461.99736 c -5.24518,26.02921 -13.28946,49.24064 -24.06422,69.36865 15.06636,-12.84636 74.87982,-67.24676 92.58332,-135.20639 z"
         fill="#6760dc"
         style="fill:#f0623b"
         id="path163"
         transform="translate(-31.45212,-103.72389)" />
      <path
         d="m 854.42546,341.70151 a 298.92474,298.92474 0 0 0 11.04459,38.46068 l 0.205,-1.33038 110.48,80.35763 a 371.63061,371.63061 0 0 0 5.75255,-44.16556 z"
         fill="#6760dc"
         style="fill:#f0623b"
         id="path165"
         transform="translate(-31.45212,-103.72389)" />
      <path
         d="m 964.75741,230.16087 c -9.65349,-42.90409 -19.54617,-71.74153 -19.68918,-72.155 l 0.61937,-0.53055 c -20.213,-4.15449 -38.80891,2.44285 -54.11643,17.25934 z"
         fill="#6760dc"
         style="fill:#f0623b"
         id="path167"
         transform="translate(-31.45212,-103.72389)" />
      <path
         d="m 983.61631,414.05048 c -0.0954,1.40589 -0.18418,2.81814 -0.29266,4.21155 A 369.22,369.22 0 0 1 978.1,458.098 l 67.8694,-65.21372 0.4225,1.12945 a 146.38012,146.38012 0 0 0 4.4214,-36.67938 q -0.081,-7.2869 -0.5068,-14.51174 z"
         fill="#6760dc"
         style="fill:#f0623b"
         id="path169"
         transform="translate(-31.45212,-103.72389)" />
      <path
         d="m 976.2886,292.21425 c -3.08216,-21.2378 -6.9096,-41.17388 -10.81817,-58.85529 l -74.86513,-56.69847 0.19491,-1.18109 c -11.43,11.35113 -20.9783,27.33462 -27.93888,46.86719 z"
         fill="#6760dc"
         style="fill:#f0623b"
         id="path171"
         transform="translate(-31.45212,-103.72389)" />
      <path
         d="M 975.6998,461.50472 866.02837,381.735 c 27.181,75.31527 80.18965,147.6696 83.58435,152.263 12.56081,-22.04992 20.88157,-46.77767 26.08708,-72.49328 z"
         fill="#6760dc"
         style="fill:#f0623b"
         id="path173"
         transform="translate(-31.45212,-103.72389)" />
      <path
         d="m 982.02352,412.4907 0.0631,-0.0674 a 501.54117,501.54117 0 0 0 0.51673,-53.9848 l -131.786,-74.51486 q -0.7047,10.84765 -0.58894,22.3068 a 179.7112,179.7112 0 0 0 3.58432,32.51911 z"
         fill="#6760dc"
         style="fill:#f0623b"
         id="path175"
         transform="translate(-31.45212,-103.72389)" />
      <path
         d="m 1167.585,467.774 -48.5358,26.58578 c -8.3671,16.2995 -18.2574,34.30413 -29.5707,52.82964 l 76.549,-35.42025 -0.126,1.08691 c 2.7671,-16.40363 3.3939,-32.014 1.7406,-46.13525 z"
         fill="#6760dc"
         style="fill:#f0623b"
         id="path177"
         transform="translate(-31.45212,-103.72389)" />
      <path
         d="m 1120.5119,491.49784 47.0155,-25.75231 c -1.9777,-15.80057 -6.8472,-29.69446 -14.8429,-40.66836 -0.416,-0.57092 -0.8436,-1.123 -1.2725,-1.67287 -1.7888,4.64899 -12.4703,31.86538 -30.9001,68.09354 z"
         fill="#6760dc"
         style="fill:#f0623b"
         id="path179"
         transform="translate(-31.45212,-103.72389)" />
      <path
         d="m 1114.5032,629.78057 -0.3738,1.17142 q 6.866,-9.43779 12.9298,-19.21654 l -99.0854,20.53069 0.1496,-0.542 q -4.6186,5.25567 -9.2742,10.2347 z"
         fill="#6760dc"
         style="fill:#f0623b"
         id="path181"
         transform="translate(-31.45212,-103.72389)" />
      <path
         d="m 1148.0063,571.23169 -0.2585,1.1468 a 258.75306,258.75306 0 0 0 17.9515,-58.38106 l -78.0078,36.0945 q -16.0242,25.97224 -32.8496,48.53083 z"
         fill="#6760dc"
         style="fill:#f0623b"
         id="path183"
         transform="translate(-31.45212,-103.72389)" />
      <path
         d="m 1044.7231,420.42574 a 216.05175,216.05175 0 0 0 -34.6527,26.37094 l 51.2926,140.34058 c 9.467,-13.24074 18.029,-26.31956 25.6242,-38.6673 l -43.1493,-127.19283 z"
         fill="#6760dc"
         style="fill:#f0623b"
         id="path185"
         transform="translate(-31.45212,-103.72389)" />
      <path
         d="m 998.01668,458.68132 0.8734,-0.87054 53.84112,141.09834 q 3.6005,-4.785 7.0468,-9.56334 l -51.4819,-140.85848 0.8785,-0.864 q -5.6245,5.24764 -11.15792,11.05802 z"
         fill="#6760dc"
         style="fill:#f0623b"
         id="path187"
         transform="translate(-31.45212,-103.72389)" />
      <path
         d="m 1128.1559,609.31716 -0.3209,1.16237 a 309.00347,309.00347 0 0 0 19.375,-36.87215 l -94.4242,27.76168 q -11.3048,14.9786 -22.8896,28.30767 z"
         fill="#6760dc"
         style="fill:#f0623b"
         id="path189"
         transform="translate(-31.45212,-103.72389)" />
      <path
         d="m 981.01356,677.43587 c -20.64159,16.702 -41.64182,29.44842 -62.77838,38.07849 19.79756,-0.28458 100.56262,-4.03328 157.54332,-45.08354 z"
         fill="#6760dc"
         style="fill:#f0623b"
         id="path191"
         transform="translate(-31.45212,-103.72389)" />
      <path
         d="m 963.07564,506.39107 a 298.92381,298.92381 0 0 0 -16.02438,36.66642 l 1.0064,-0.89392 33.83727,132.35643 a 371.62606,371.62606 0 0 0 32.59997,-30.34679 z"
         fill="#6760dc"
         style="fill:#f0623b"
         id="path193"
         transform="translate(-31.45212,-103.72389)" />
      <path
         d="m 1119.1945,490.855 c 19.9298,-39.20142 30.7035,-67.72141 30.8571,-68.13105 l 0.8154,-0.0136 c -12.9181,-16.09194 -31.4483,-22.87145 -52.6882,-21.22331 z"
         fill="#6760dc"
         style="fill:#f0623b"
         id="path195"
         transform="translate(-31.45212,-103.72389)" />
      <path
         d="m 1016.4318,644.51336 c -0.9701,1.022 -1.9393,2.053 -2.9116,3.057 a 369.22271,369.22271 0 0 1 -29.43111,27.34954 l 93.86651,-6.93884 -0.395,1.13938 a 146.38008,146.38008 0 0 0 26.8,-25.43 q 4.5855,-5.66379 8.8655,-11.5 z"
         fill="#6760dc"
         style="fill:#f0623b"
         id="path197"
         transform="translate(-31.45212,-103.72389)" />
      <path
         d="m 1088.4971,546.00263 c 11.1719,-18.323 20.9396,-36.11873 29.2067,-52.22972 l -21.4972,-91.41867 0.9035,-0.78535 c -16.0432,1.45228 -33.5917,7.67256 -51.4109,18.27678 z"
         fill="#6760dc"
         style="fill:#f0623b"
         id="path199"
         transform="translate(-31.45212,-103.72389)" />
      <path
         d="M 980.06759,676.01285 946.47812,544.625 c -27.1027,75.34348 -32.42465,164.87975 -32.73986,170.58276 23.738,-8.97122 45.9183,-22.70917 66.32933,-39.19491 z"
         fill="#6760dc"
         style="fill:#f0623b"
         id="path201"
         transform="translate(-31.45212,-103.72389)" />
      <path
         d="m 1016.2,642.29608 0.092,-0.0116 a 501.53649,501.53649 0 0 0 34.8303,-41.249 L 997.14839,459.58986 q -7.46154,7.90527 -14.68121,16.80483 a 179.71138,179.71138 0 0 0 -17.98056,27.332 z"
         fill="#6760dc"
         style="fill:#f0623b"
         id="path203"
         transform="translate(-31.45212,-103.72389)" />
      <path
         d="m 841.58618,384.75462 -3.527,55.22757 c 9.28814,15.79282 19.2011,33.785 28.79227,53.2579 l 11.0612,-83.61809 0.85057,0.68831 c -12.37394,-11.1185 -25.22359,-20.00463 -38.03612,-26.1676 z"
         fill="#6760dc"
         style="fill:#f0623b"
         id="path205"
         transform="translate(-31.45212,-103.72389)" />
      <path
         d="m 836.42487,437.21468 3.41711,-53.49731 c -14.40456,-6.788 -28.74676,-10.11281 -42.29611,-9.23392 -0.70493,0.0457 -1.40016,0.11139 -2.09419,0.17928 2.96914,3.99965 20.23922,27.59141 40.97319,62.55195 z"
         fill="#6760dc"
         style="fill:#f0623b"
         id="path207"
         transform="translate(-31.45212,-103.72389)" />
      <path
         d="m 950.00805,516.31637 0.78934,0.94281 q -4.296,-10.85165 -9.3095,-21.20819 l -35.702,94.68259 -0.37772,-0.41649 q 1.96671,6.7146 3.67995,13.31233 z"
         fill="#6760dc"
         style="fill:#f0623b"
         id="path209"
         transform="translate(-31.45212,-103.72389)" />
      <path
         d="m 918.49016,456.67535 0.83024,0.83228 A 258.75348,258.75348 0 0 0 879.61908,411.092 l -11.27269,85.2113 q 13.35918,27.43835 23.406,53.72609 z"
         fill="#6760dc"
         style="fill:#f0623b"
         id="path211"
         transform="translate(-31.45212,-103.72389)" />
      <path
         d="m 735.82239,463.18244 a 216.05215,216.05215 0 0 0 3.72357,43.38627 l 145.99626,31.8041 c -6.11582,-15.08431 -12.57928,-29.31764 -18.9428,-42.343 l -130.53175,-31.644 z"
         fill="#6760dc"
         style="fill:#f0623b"
         id="path213"
         transform="translate(-31.45212,-103.72389)" />
      <path
         d="m 743.13155,523.112 -0.26774,-1.20373 148.00061,30.05713 q -2.11422,-5.60271 -4.30529,-11.07155 l -146.535,-31.92146 -0.25949,-1.20453 q 1.42136,7.55992 3.36691,15.34414 z"
         fill="#6760dc"
         style="fill:#f0623b"
         id="path215"
         transform="translate(-31.45212,-103.72389)" />
      <path
         d="m 940.03237,493.83011 0.81,0.89323 a 309.00289,309.00289 0 0 0 -20.7719,-36.10366 l -27.0991,94.61652 q 6.5998,17.567 11.6565,34.48745 z"
         fill="#6760dc"
         style="fill:#f0623b"
         id="path217"
         transform="translate(-31.45212,-103.72389)" />
      <path
         d="m 918.79922,654.57887 c 3.05722,26.37584 2.58145,50.93709 -1.44417,73.40989 10.35779,-16.87425 50.42721,-87.09884 46.25765,-157.20262 z"
         fill="#6760dc"
         style="fill:#f0623b"
         id="path219"
         transform="translate(-31.45212,-103.72389)" />
      <path
         d="m 764.72446,578.16512 a 298.92554,298.92554 0 0 0 22.39181,33.16344 L 786.9,610 916.80819,652.27352 a 371.63113,371.63113 0 0 0 -8.18059,-43.78089 z"
         fill="#6760dc"
         style="fill:#f0623b"
         id="path221"
         transform="translate(-31.45212,-103.72389)" />
      <path
         d="m 835.17664,437.98329 c -22.44228,-37.81923 -40.76408,-62.18672 -41.02788,-62.5357 l 0.425,-0.696 c -20.50737,2.29674 -36.15338,14.31893 -46.13157,33.14138 z"
         fill="#6760dc"
         style="fill:#f0623b"
         id="path223"
         transform="translate(-31.45212,-103.72389)" />
      <path
         d="m 909.95175,607.03871 c 0.34385,1.36652 0.69591,2.73706 1.02344,4.09577 a 369.22132,369.22132 0 0 1 7.34535,39.49981 l 44.38846,-82.99845 0.75094,0.94355 a 146.37993,146.37993 0 0 0 -7.13258,-36.24986 q -2.32916,-6.90511 -4.96749,-13.64447 z"
         fill="#6760dc"
         style="fill:#f0623b"
         id="path225"
         transform="translate(-31.45212,-103.72389)" />
      <path
         d="m 865.32366,493.4337 c -9.49577,-19.24511 -19.298,-37.02188 -28.48039,-52.62931 l -88.72435,-30.78139 -0.17971,-1.1835 c -7.3617,14.32826 -11.50195,32.48039 -12.08422,53.20795 z"
         fill="#6760dc"
         style="fill:#f0623b"
         id="path227"
         transform="translate(-31.45212,-103.72389)" />
      <path
         d="M 917.09086,654.61611 788.1334,612.65177 c 49.12967,63.22556 121.907,115.65192 126.5553,118.97113 5.13015,-24.85269 5.40018,-50.94145 2.40216,-77.00679 z"
         fill="#6760dc"
         style="fill:#f0623b"
         id="path229"
         transform="translate(-31.45212,-103.72389)" />
      <path
         d="m 907.95481,606.04767 0.0392,-0.0836 A 501.53715,501.53715 0 0 0 891.7989,554.46314 L 743.43413,524.33187 q 2.68278,10.53425 6.33486,21.39648 a 179.711,179.711 0 0 0 13.46035,29.81876 z"
         fill="#6760dc"
         style="fill:#f0623b"
         id="path231"
         transform="translate(-31.45212,-103.72389)" />
      <circle
         cx="686"
         cy="230.00011"
         fill="#2f2e41"
         style="fill:#564fd9"
         id="circle233"
         r="60.000011" />
      <circle
         cx="751"
         cy="151.00011"
         fill="#2f2e41"
         style="fill:#564fd9"
         id="circle235"
         r="60.000011" />
      <path
         d="m 834.20534,304.40785 a 60.00326,60.00326 0 0 1 -92.6559,-31.505 60.00331,60.00331 0 1 0 117.04384,-24.60556 59.98115,59.98115 0 0 1 -24.38794,56.11056 z"
         fill="#2f2e41"
         style="fill:#564fd9"
         id="path237"
         transform="translate(-31.45212,-103.72389)" />
      <circle
         cx="670.49994"
         cy="253.50008"
         fill="#a0616a"
         style="fill:#7a74e0"
         id="circle239"
         r="49" />
      <path
         d="m 684.95212,397.224 c 0,0 20,30 17,43 0,0 -13,6 -13,8 0,2 -12,21 -12,21 l -14,19 -6,25 h 29 l 32,-25 31,-34 c 0,0 21,-10 32,-2 l 6,5 c 0,0 -21,-28 -31,-34 0,0 -18,-22 -16,-44 z"
         fill="#a0616a"
         style="fill:#7a74e0"
         id="path241"
         transform="translate(-31.45212,-103.72389)" />
      <path
         d="m 692.95212,439.224 c 0,0 -20,11 -28,32 -8,21 -44,91 -44,91 0,0 -3,45 -1,47 2,2 25,-20 29,-26 4,-6 20,-78 20,-78 l 26,-42 5,-24 z"
         fill="#a0616a"
         style="fill:#7a74e0"
         id="path243"
         transform="translate(-31.45212,-103.72389)" />
      <path
         d="m 629.95212,565.22395 -9,-3 c 0,0 -55,-34 -58,-49 -3,-15 -47,-65 -48,-38 -1,27 32,57 32,57 0,0 72,101 76,72 z"
         fill="#a0616a"
         style="fill:#7a74e0"
         id="path245"
         transform="translate(-31.45212,-103.72389)" />
      <path
         d="m 720.95212,496.224 c 0,0 1,28 40,38 0,0 40,54 44,78 4,24 109,147 109,147 0,0 96.99998,12 96.99998,0 0,-12 -80.99998,-22 -80.99998,-22 0,0 -85,-126 -89,-143 -4,-17 -42,-143 -60,-142 0,0 -17,-8 -27,-2 -10,6 -33,46 -33,46 z"
         transform="translate(-31.45212,-103.72389)"
         fill="#a0616a"
         style="fill:url(#linearGradient466);fill-opacity:1"
         id="path247" />
      <path
         d="m 603.95212,609.22395 c 0,0 -70,-94 -85,-100 -15,-6 -34,-10 -45,4 -11,14 -141,178 -141,178 0,0 -46,47 -69,38 0,0 -12,10 16,12 28,2 54,-6 54,-6 0,0 17,3 29,6 12,3 27,4 26,-4 l -4,-32 c 0,0 103,-85 106,-121 0,0 -2,-17 0,-15 2,2 44,47 63,57 19,10 66,24 66,24 z"
         transform="translate(-31.45212,-103.72389)"
         fill="#a0616a"
         id="path249" />
      <path
         d="m 603.95212,609.22395 c 0,0 -70,-94 -85,-100 -15,-6 -34,-10 -45,4 -11,14 -141,178 -141,178 0,0 -46,47 -69,38 0,0 -12,10 16,12 28,2 54,-6 54,-6 0,0 17,3 29,6 12,3 27,4 26,-4 l -4,-32 c 0,0 103,-85 106,-121 0,0 -2,-17 0,-15 2,2 44,47 63,57 19,10 66,24 66,24 z"
         transform="translate(-31.45212,-103.72389)"
         style="fill:#564fd9;stroke:#564fd9"
         id="path251" />
      <path
         d="m 614.95212,622.22395 c 0,0 -92,-35 -104,-43 -12,-8 -55,-24 -77,-6 -22,18 -129,101 -165,109 -36,8 -98,27 -98,27 0,0 -40,3 3,20 0,0 53,5 62,13 9,8 39,18 41,5 2,-13 8,-30 19,-32 11,-2 143,-38 163,-77 0,0 45,25 73,54 28,29 94,45 94,45 z"
         fill="#a0616a"
         style="fill:#7a74e0"
         id="path253"
         transform="translate(-31.45212,-103.72389)" />
      <path
         d="m 647.95212,590.22395 c 0,0 -43.83517,11.65172 -47.41758,7.32586 -3.58241,-4.32586 -22.58242,19.67414 -4.58242,67.67414 18,48 14,70 24,77 10,7 57,-4 71,1 14,5 32,9 38,-20 6,-29 21,-80 18,-87 -3,-7 -19,-23 -19,-23 l -33,-17 z"
         fill="#3f3d56"
         style="fill:#f0623b"
         id="path255"
         transform="translate(-31.45212,-103.72389)" />
      <path
         d="m 799.45212,477.724 c 0,0 -6.96182,-19.50105 -19.88546,-23.15706 a 33.20394,33.20394 0 0 1 -3.22618,-1.058 c -4.85461,-1.92741 -19.66336,-6.13491 -30.38836,8.71509 -13,18 -25,39 -15,51 10,12 30,19 30,19 l 15,19 c 0,0 -30,54 -30,79 0,0 -1,10 -18,-8 -17,-18 -86.56887,-30.44484 -86.56887,-30.44484 0,0 14.56887,-19.55516 3.56887,-28.55516 -11,-9 -21.07086,-44.84842 4.96457,-58.92421 l 44.53543,-65.57582 8,1 c 0,0 -10.5,9.5 -11.5,14.5 -1,5 -41,40 -25,46 16,6 42,-7 53,-22 6.05,-8.25 14.52,-19.525 25.24363,-26.67087 a 37.38913,37.38913 0 0 1 37.39866,-2.008 l 3.35771,1.67885 v 0 a 42.838,42.838 0 0 1 14.80839,18.21957 l 1.1916,2.78042 z"
         fill="#2f2e41"
         style="fill:#f5764e"
         id="path257"
         transform="translate(-31.45212,-103.72389)" />
      <circle
         cx="702"
         cy="240.00009"
         fill="#2f2e41"
         style="fill:#564fd9"
         id="circle259"
         r="44.000011" />
      <ellipse
         cx="665"
         cy="223.50006"
         rx="39"
         ry="30.5"
         fill="#2f2e41"
         style="fill:#564fd9"
         id="ellipse261" />
      <ellipse
         cx="679.5"
         cy="271.50006"
         rx="6.5"
         ry="11.5"
         fill="#a0616a"
         id="ellipse263" />
      <path
         d="m 721.95212,274.08394 v 79.64 h -23 v -79.64 a 5.36021,5.36021 0 0 1 5.35987,-5.36 h 12.28027 a 5.3602,5.3602 0 0 1 5.35986,5.36 z"
         fill="#ff6584"
         style="fill:#ffffff"
         id="path265"
         transform="translate(-31.45212,-103.72389)" />
      <circle
         cx="679"
         cy="266.00006"
         fill="#6760dc"
         style="fill:#ffffff"
         id="circle267"
         r="25.00001" />
      <circle
         cx="679"
         cy="266.00006"
         fill="#f2f2f2"
         id="circle269"
         r="11" />
      <circle
         cx="679"
         cy="266.00006"
         fill="#ff6584"
         id="circle271"
         r="3" />
      <path
         d="m 721.95212,274.08394 v 3.64 h -23 v -3.64 a 5.36021,5.36021 0 0 1 5.35987,-5.36 h 12.28027 a 5.3602,5.3602 0 0 1 5.35986,5.36 z"
         opacity="0.1"
         style="fill:#ffffff"
         id="path273"
         transform="translate(-31.45212,-103.72389)" />
      <path
         d="m 454.80585,471.37023 58.88009,-58.88009 a 10.983,10.983 0 0 1 15.53237,0 l 52.96763,52.96762 a 10.98307,10.98307 0 0 1 0,15.53238 L 527.1721,536.004 a 10.983,10.983 0 0 1 -14.9464,0.54476 l -56.83388,-49.10137 a 10.98305,10.98305 0 0 1 -0.58597,-16.07716 z"
         transform="translate(-31.45212,-103.72389)"
         fill="#2f2e41"
         style="fill:#64beb5;stroke:#64beb5"
         id="path275" />
      <polygon
         points="534,368 484.5,417.5 440,377 491.5,325.5 "
         fill="#f2f2f2"
         style="fill:#579c95;stroke:#579c95"
         id="polygon277" />
    </g>
  </g>
</svg>
